<svg width="24" height="24" viewBox="0 0 24 24" fill="none" xmlns="http://www.w3.org/2000/svg">
<path d="M3.56301 4.063C3.4304 4.063 3.30323 4.01032 3.20946 3.91655C3.11569 3.82279 3.06301 3.69561 3.06301 3.563C3.06301 3.43039 3.11569 3.30321 3.20946 3.20945C3.30323 3.11568 3.4304 3.063 3.56301 3.063L20.437 3.061C20.5696 3.061 20.6968 3.11368 20.7906 3.20745C20.8843 3.30122 20.937 3.42839 20.937 3.561C20.937 3.69361 20.8843 3.82078 20.7906 3.91455C20.6968 4.00832 20.5696 4.061 20.437 4.061L3.56301 4.063ZM3.56301 9.5C3.4304 9.5 3.30323 9.44732 3.20946 9.35355C3.11569 9.25979 3.06301 9.13261 3.06301 9C3.06301 8.86739 3.11569 8.74021 3.20946 8.64645C3.30323 8.55268 3.4304 8.5 3.56301 8.5L13.563 8.499C13.6956 8.499 13.8228 8.55168 13.9166 8.64545C14.0103 8.73921 14.063 8.86639 14.063 8.999C14.063 9.13161 14.0103 9.25879 13.9166 9.35255C13.8228 9.44632 13.6956 9.499 13.563 9.499L3.56301 9.5Z" fill="black"/>
</svg>
