<svg width="523" height="673" viewBox="0 0 523 673" fill="none" xmlns="http://www.w3.org/2000/svg">
<path d="M508.067 122.267V122.314L401.025 15.267H401.072L386.14 0.334961H0.326782V672.335H522.993V137.202L508.067 122.267ZM388.832 24.1881L499.139 134.495H388.832V24.1881ZM508.067 655.999H15.2666V15.2654H373.893V149.425L508.067 149.431V655.999Z" fill="black"/>
<path d="M305.853 276.147C305.853 281.209 301.739 285.314 296.676 285.314H271.463C266.395 285.314 262.286 281.209 262.286 276.147V250.934C262.286 245.871 266.39 241.767 271.463 241.767H296.676C301.739 241.767 305.853 245.871 305.853 250.934V276.147Z" fill="black"/>
<path d="M261.053 231.347C261.053 236.409 256.939 240.513 251.876 240.513H226.663C221.6 240.513 217.496 236.409 217.496 231.347V206.133C217.496 201.071 221.6 196.967 226.663 196.967H251.876C256.939 196.967 261.053 201.071 261.053 206.133V231.347Z" fill="black"/>
<path d="M305.853 362.147C305.853 367.209 301.739 371.314 296.676 371.314H271.463C266.395 371.314 262.286 367.209 262.286 362.147V336.934C262.286 331.871 266.39 327.767 271.463 327.767H296.676C301.739 327.767 305.853 331.871 305.853 336.934V362.147Z" fill="black"/>
<path d="M261.053 317.347C261.053 322.409 256.939 326.513 251.876 326.513H226.663C221.6 326.513 217.496 322.409 217.496 317.347V292.133C217.496 287.071 221.6 282.967 226.663 282.967H251.876C256.939 282.967 261.053 287.071 261.053 292.133V317.347Z" fill="black"/>
<path d="M305.853 186.547C305.853 191.609 301.739 195.713 296.676 195.713H271.463C266.395 195.713 262.286 191.609 262.286 186.547V161.333C262.286 156.271 266.39 152.167 271.463 152.167H296.676C301.739 152.167 305.853 156.271 305.853 161.333V186.547Z" fill="black"/>
<path d="M261.053 141.747C261.053 146.809 256.949 150.913 251.887 150.913H226.673C221.611 150.913 217.507 146.809 217.507 141.747V116.533C217.507 111.471 221.611 107.367 226.673 107.367H251.887C256.949 107.367 261.053 111.471 261.053 116.533V141.747Z" fill="black"/>
<path d="M305.853 96.9466C305.853 102.009 301.739 106.113 296.676 106.113H271.463C266.395 106.113 262.286 102.009 262.286 96.9466V71.7333C262.286 66.6708 266.39 62.5667 271.463 62.5667H296.676C301.739 62.5667 305.853 66.6708 305.853 71.7333V96.9466Z" fill="black"/>
<path d="M330.32 510.798L304.107 411.203H261.044V394.78C261.044 389.692 256.94 385.567 251.877 385.567H226.664C221.601 385.567 217.497 389.692 217.497 394.78V417.815L193.024 510.799C181.883 555.711 215.685 581.938 261.664 581.938C307.691 581.938 341.424 555.658 330.32 510.799V510.798ZM219.221 526.801C219.221 489.428 304.049 488.565 304.049 526.701C304.055 563.053 219.221 562.786 219.221 526.801Z" fill="black"/>
</svg>
